<mxfile host="app.diagrams.net" modified="2023-10-06T15:19:34.319Z" agent="Mozilla/5.0 (X11; Linux x86_64; rv:109.0) Gecko/20100101 Firefox/118.0" etag="aP8Qo7ZxOoMQ9tWo6Qlt" version="22.0.3" type="github">
  <diagram name="Страница — 1" id="pQFt7UBYZ4boE40u2RLS">
    <mxGraphModel dx="1192" dy="623" grid="1" gridSize="10" guides="1" tooltips="1" connect="1" arrows="1" fold="1" page="1" pageScale="1" pageWidth="827" pageHeight="1169" math="0" shadow="0">
      <root>
        <mxCell id="0" />
        <mxCell id="1" parent="0" />
        <mxCell id="mpJi-M8Czy9qEa-5jLMn-1" value="User" style="swimlane;whiteSpace=wrap;html=1;" vertex="1" parent="1">
          <mxGeometry y="80" width="160" height="200" as="geometry" />
        </mxCell>
        <mxCell id="mpJi-M8Czy9qEa-5jLMn-2" value="ID int" style="text;html=1;align=center;verticalAlign=middle;resizable=0;points=[];autosize=1;strokeColor=none;fillColor=none;" vertex="1" parent="mpJi-M8Czy9qEa-5jLMn-1">
          <mxGeometry x="50" y="30" width="60" height="30" as="geometry" />
        </mxCell>
        <mxCell id="mpJi-M8Czy9qEa-5jLMn-3" value="Name string" style="text;html=1;align=center;verticalAlign=middle;resizable=0;points=[];autosize=1;strokeColor=none;fillColor=none;" vertex="1" parent="mpJi-M8Czy9qEa-5jLMn-1">
          <mxGeometry x="35" y="60" width="90" height="30" as="geometry" />
        </mxCell>
        <mxCell id="mpJi-M8Czy9qEa-5jLMn-4" value="Password string" style="text;html=1;align=center;verticalAlign=middle;resizable=0;points=[];autosize=1;strokeColor=none;fillColor=none;" vertex="1" parent="mpJi-M8Czy9qEa-5jLMn-1">
          <mxGeometry x="20" y="90" width="120" height="30" as="geometry" />
        </mxCell>
        <mxCell id="mpJi-M8Czy9qEa-5jLMn-5" value="&lt;div&gt;Email string&lt;br&gt;&lt;/div&gt;" style="text;html=1;align=center;verticalAlign=middle;resizable=0;points=[];autosize=1;strokeColor=none;fillColor=none;" vertex="1" parent="mpJi-M8Czy9qEa-5jLMn-1">
          <mxGeometry x="35" y="120" width="90" height="30" as="geometry" />
        </mxCell>
        <mxCell id="mpJi-M8Czy9qEa-5jLMn-6" value="ChatroomID int" style="text;html=1;align=center;verticalAlign=middle;resizable=0;points=[];autosize=1;strokeColor=none;fillColor=none;" vertex="1" parent="mpJi-M8Czy9qEa-5jLMn-1">
          <mxGeometry x="25" y="160" width="110" height="30" as="geometry" />
        </mxCell>
        <mxCell id="mpJi-M8Czy9qEa-5jLMn-7" value="ChatRoom" style="swimlane;whiteSpace=wrap;html=1;" vertex="1" parent="1">
          <mxGeometry x="667" y="100" width="160" height="130" as="geometry" />
        </mxCell>
        <mxCell id="mpJi-M8Czy9qEa-5jLMn-8" value="ID int" style="text;html=1;align=center;verticalAlign=middle;resizable=0;points=[];autosize=1;strokeColor=none;fillColor=none;" vertex="1" parent="mpJi-M8Czy9qEa-5jLMn-7">
          <mxGeometry x="50" y="30" width="60" height="30" as="geometry" />
        </mxCell>
        <mxCell id="mpJi-M8Czy9qEa-5jLMn-9" value="Name string" style="text;html=1;align=center;verticalAlign=middle;resizable=0;points=[];autosize=1;strokeColor=none;fillColor=none;" vertex="1" parent="mpJi-M8Czy9qEa-5jLMn-7">
          <mxGeometry x="35" y="60" width="90" height="30" as="geometry" />
        </mxCell>
        <mxCell id="mpJi-M8Czy9qEa-5jLMn-29" value="Password string" style="text;html=1;align=center;verticalAlign=middle;resizable=0;points=[];autosize=1;strokeColor=none;fillColor=none;" vertex="1" parent="mpJi-M8Czy9qEa-5jLMn-7">
          <mxGeometry x="20" y="90" width="120" height="30" as="geometry" />
        </mxCell>
        <mxCell id="mpJi-M8Czy9qEa-5jLMn-16" value="UserChat" style="swimlane;whiteSpace=wrap;html=1;startSize=23;" vertex="1" parent="1">
          <mxGeometry x="334" y="120" width="160" height="100" as="geometry" />
        </mxCell>
        <mxCell id="mpJi-M8Czy9qEa-5jLMn-17" value="UserID int" style="text;html=1;align=center;verticalAlign=middle;resizable=0;points=[];autosize=1;strokeColor=none;fillColor=none;" vertex="1" parent="mpJi-M8Czy9qEa-5jLMn-16">
          <mxGeometry x="40" y="30" width="80" height="30" as="geometry" />
        </mxCell>
        <mxCell id="mpJi-M8Czy9qEa-5jLMn-18" value="ChatRoomID int" style="text;html=1;align=center;verticalAlign=middle;resizable=0;points=[];autosize=1;strokeColor=none;fillColor=none;" vertex="1" parent="mpJi-M8Czy9qEa-5jLMn-16">
          <mxGeometry x="25" y="60" width="110" height="30" as="geometry" />
        </mxCell>
        <mxCell id="mpJi-M8Czy9qEa-5jLMn-21" value="" style="edgeStyle=entityRelationEdgeStyle;fontSize=12;html=1;endArrow=ERoneToMany;rounded=0;exitX=1;exitY=0.25;exitDx=0;exitDy=0;entryX=0;entryY=0.5;entryDx=0;entryDy=0;" edge="1" parent="1" source="mpJi-M8Czy9qEa-5jLMn-1" target="mpJi-M8Czy9qEa-5jLMn-16">
          <mxGeometry width="100" height="100" relative="1" as="geometry">
            <mxPoint x="310" y="340" as="sourcePoint" />
            <mxPoint x="410" y="240" as="targetPoint" />
          </mxGeometry>
        </mxCell>
        <mxCell id="mpJi-M8Czy9qEa-5jLMn-22" value="" style="edgeStyle=entityRelationEdgeStyle;fontSize=12;html=1;endArrow=ERoneToMany;rounded=0;entryX=0;entryY=0.25;entryDx=0;entryDy=0;exitX=1;exitY=0.75;exitDx=0;exitDy=0;" edge="1" parent="1" source="mpJi-M8Czy9qEa-5jLMn-16" target="mpJi-M8Czy9qEa-5jLMn-7">
          <mxGeometry width="100" height="100" relative="1" as="geometry">
            <mxPoint x="620.0000000000005" y="150" as="sourcePoint" />
            <mxPoint x="560" y="360" as="targetPoint" />
            <Array as="points">
              <mxPoint x="680" y="384.16666666666674" />
              <mxPoint x="670" y="344.16666666666674" />
              <mxPoint x="630" y="384.16666666666674" />
              <mxPoint x="560" y="240" />
              <mxPoint x="650" y="394.16666666666674" />
            </Array>
          </mxGeometry>
        </mxCell>
        <mxCell id="mpJi-M8Czy9qEa-5jLMn-23" value="Message" style="swimlane;whiteSpace=wrap;html=1;" vertex="1" parent="1">
          <mxGeometry x="334" y="330" width="160" height="140" as="geometry" />
        </mxCell>
        <mxCell id="mpJi-M8Czy9qEa-5jLMn-24" value="ID int" style="text;html=1;align=center;verticalAlign=middle;resizable=0;points=[];autosize=1;strokeColor=none;fillColor=none;" vertex="1" parent="mpJi-M8Czy9qEa-5jLMn-23">
          <mxGeometry x="50" y="30" width="60" height="30" as="geometry" />
        </mxCell>
        <mxCell id="mpJi-M8Czy9qEa-5jLMn-25" value="UserID int" style="text;html=1;align=center;verticalAlign=middle;resizable=0;points=[];autosize=1;strokeColor=none;fillColor=none;" vertex="1" parent="mpJi-M8Czy9qEa-5jLMn-23">
          <mxGeometry x="40" y="60" width="80" height="30" as="geometry" />
        </mxCell>
        <mxCell id="mpJi-M8Czy9qEa-5jLMn-26" value="ChatRoomID int" style="text;html=1;align=center;verticalAlign=middle;resizable=0;points=[];autosize=1;strokeColor=none;fillColor=none;" vertex="1" parent="mpJi-M8Czy9qEa-5jLMn-23">
          <mxGeometry x="25" y="90" width="110" height="30" as="geometry" />
        </mxCell>
        <mxCell id="mpJi-M8Czy9qEa-5jLMn-30" value="" style="edgeStyle=entityRelationEdgeStyle;fontSize=12;html=1;endArrow=ERoneToMany;rounded=0;exitX=1;exitY=0.25;exitDx=0;exitDy=0;entryX=0;entryY=0.5;entryDx=0;entryDy=0;" edge="1" parent="1" source="mpJi-M8Czy9qEa-5jLMn-1" target="mpJi-M8Czy9qEa-5jLMn-23">
          <mxGeometry width="100" height="100" relative="1" as="geometry">
            <mxPoint x="230" y="350" as="sourcePoint" />
            <mxPoint x="410" y="240" as="targetPoint" />
          </mxGeometry>
        </mxCell>
        <mxCell id="mpJi-M8Czy9qEa-5jLMn-31" value="" style="edgeStyle=entityRelationEdgeStyle;fontSize=12;html=1;endArrow=ERzeroToMany;endFill=1;rounded=0;exitX=1;exitY=0.75;exitDx=0;exitDy=0;" edge="1" parent="1" source="mpJi-M8Czy9qEa-5jLMn-23">
          <mxGeometry width="100" height="100" relative="1" as="geometry">
            <mxPoint x="310" y="340" as="sourcePoint" />
            <mxPoint x="670" y="133" as="targetPoint" />
          </mxGeometry>
        </mxCell>
      </root>
    </mxGraphModel>
  </diagram>
</mxfile>
